<?xml version="1.0" encoding="UTF-8" standalone="no"?>
<!-- Created with Inkscape (http://www.inkscape.org/) -->

<svg
   xmlns:dc="http://purl.org/dc/elements/1.1/"
   xmlns:cc="http://creativecommons.org/ns#"
   xmlns:rdf="http://www.w3.org/1999/02/22-rdf-syntax-ns#"
   xmlns:svg="http://www.w3.org/2000/svg"
   xmlns="http://www.w3.org/2000/svg"
   xmlns:sodipodi="http://sodipodi.sourceforge.net/DTD/sodipodi-0.dtd"
   xmlns:inkscape="http://www.inkscape.org/namespaces/inkscape"
   version="1.1"
   id="svg2"
   xml:space="preserve"
   width="1122.52"
   height="628.03998"
   viewBox="0 0 1122.52 628.03998"
   sodipodi:docname="logo-basesvg.svg"
   inkscape:export-filename="/mnt/wolf/files/Developer/ubyus/front/src/assets/img/logo/newlogo.png"
   inkscape:export-xdpi="96"
   inkscape:export-ydpi="96"
   inkscape:version="0.92.5 (2060ec1f9f, 2020-04-08)"><metadata
     id="metadata8"><rdf:RDF><cc:Work
         rdf:about=""><dc:format>image/svg+xml</dc:format><dc:type
           rdf:resource="http://purl.org/dc/dcmitype/StillImage" /></cc:Work></rdf:RDF></metadata><defs
     id="defs6"><clipPath
       clipPathUnits="userSpaceOnUse"
       id="clipPath20"><path
         d="M 0,471.03 H 841.89 V 0 H 0 Z"
         id="path18"
         inkscape:connector-curvature="0" /></clipPath><clipPath
       clipPathUnits="userSpaceOnUse"
       id="clipPath36"><path
         d="M 0,471.03 H 841.89 V 0 H 0 Z"
         id="path34"
         inkscape:connector-curvature="0" /></clipPath></defs><sodipodi:namedview
     pagecolor="#ffffff"
     bordercolor="#666666"
     borderopacity="1"
     objecttolerance="10"
     gridtolerance="10"
     guidetolerance="10"
     inkscape:pageopacity="0"
     inkscape:pageshadow="2"
     inkscape:window-width="1366"
     inkscape:window-height="693"
     id="namedview4"
     showgrid="false"
     inkscape:zoom="0.65210418"
     inkscape:cx="567.394"
     inkscape:cy="316.6599"
     inkscape:window-x="0"
     inkscape:window-y="0"
     inkscape:window-maximized="1"
     inkscape:current-layer="g10" /><g
     id="g10"
     inkscape:groupmode="layer"
     inkscape:label="Folder UbyUs (English)"
     transform="matrix(1.3333333,0,0,-1.3333333,0,628.04)"><g
       id="g54"
       transform="matrix(2.7459191,0,0,2.7459191,20.605089,296.52395)"><path
         d="m 0,0 c 0,7.343 0.079,13.377 -0.037,19.408 -0.049,2.59 0.899,3.658 3.522,3.529 2.813,-0.14 5.639,-0.016 8.459,-0.031 4.114,-0.022 4.304,-0.205 4.306,-4.232 0.007,-10.356 0.006,-20.713 -0.002,-31.069 -0.003,-2.807 0.151,-5.573 1.167,-8.249 2.298,-6.059 6.425,-8.376 14.185,-7.872 5.192,0.337 9.43,4.124 10.727,9.424 0.556,2.272 0.632,4.553 0.633,6.858 0.003,10.356 -0.004,20.713 0.004,31.068 0.004,3.866 0.181,4.03 4.136,4.051 3.022,0.016 6.044,-0.008 9.066,0.031 1.936,0.024 3.091,-0.718 3.043,-2.801 C 58.904,6.762 59.969,-6.618 58.642,-19.946 57.434,-32.066 48.167,-41.301 36.063,-42.988 30.01,-43.833 24.07,-43.729 18.202,-41.935 7.783,-38.748 2.246,-31.451 0.577,-20.958 -0.598,-13.566 0.295,-6.111 0,0"
         style="fill:#3a3a3b;fill-opacity:1;fill-rule:nonzero;stroke:none"
         id="path56"
         inkscape:connector-curvature="0" /></g><g
       id="g58"
       transform="matrix(2.7459191,0,0,2.7459191,646.54858,296.33614)"><path
         d="m 0,0 c -0.369,-5.981 0.464,-13.309 -0.536,-20.633 -1.597,-11.693 -11.151,-20.921 -23.01,-22.346 -6.185,-0.744 -12.203,-0.567 -18.13,1.298 -9.401,2.958 -16.108,11.411 -16.973,21.245 -1.182,13.444 -0.258,26.915 -0.553,40.371 -0.047,2.133 0.95,3.099 3.112,3.057 3.223,-0.062 6.449,-0.09 9.669,0.022 2.557,0.089 3.556,-0.864 3.528,-3.519 -0.111,-10.857 -0.022,-21.717 -0.065,-32.575 -0.01,-2.33 0.251,-4.616 0.959,-6.802 2.179,-6.727 7.352,-9.588 15.209,-8.546 5.91,0.783 10.359,6.005 10.452,12.803 0.155,11.46 0.068,22.922 0.091,34.384 0.008,3.852 0.347,4.197 4.079,4.208 3.022,0.01 6.046,-0.07 9.064,0.025 2.366,0.074 3.169,-0.971 3.135,-3.259 C -0.062,13.601 0,7.467 0,0"
         style="fill:#3a3a3b;fill-opacity:1;fill-rule:nonzero;stroke:none"
         id="path60"
         inkscape:connector-curvature="0" /></g><g
       id="g62"
       transform="matrix(2.7459191,0,0,2.7459191,728.63398,176.89004)"><path
         d="m 0,0 c -8.753,0.163 -16.162,2.268 -22.829,6.762 -3.363,2.267 -3.575,3.208 -1.495,6.602 1.203,1.964 2.586,3.825 3.692,5.84 1.248,2.273 2.622,2.322 4.57,0.847 4.075,-3.086 8.709,-4.829 13.804,-5.354 2.75,-0.283 5.42,0.088 7.957,1.125 1.795,0.735 2.978,2.18 3.041,4.137 0.066,2 -1.192,3.34 -2.925,4.192 -3.619,1.779 -7.627,2.336 -11.419,3.571 -1.801,0.587 -3.627,1.117 -5.379,1.827 -8.886,3.597 -13.058,9.531 -12.746,18.021 0.328,8.907 5.669,16.19 14.417,18.634 11.781,3.291 22.809,1.425 32.788,-5.893 1.825,-1.339 2.107,-2.735 0.895,-4.593 -1.42,-2.177 -2.87,-4.343 -4.118,-6.617 -1.265,-2.307 -2.696,-2.566 -4.835,-1.103 -3.229,2.21 -6.649,4.079 -10.575,4.803 -2.696,0.497 -5.383,0.618 -8.016,-0.303 -2.017,-0.706 -3.506,-1.958 -3.722,-4.23 -0.225,-2.358 1.214,-3.722 3.114,-4.653 3.348,-1.642 7.087,-2.046 10.593,-3.202 3.993,-1.316 7.976,-2.605 11.5,-5.011 C 28.452,28.478 27.045,11.92 17.993,5.441 12.354,1.404 5.973,0.193 0,0"
         style="fill:#3a3a3b;fill-opacity:1;fill-rule:nonzero;stroke:none"
         id="path64"
         inkscape:connector-curvature="0" /></g><g
       id="g70"
       transform="matrix(2.7459191,0,0,2.7459191,385.92215,269.64114)"><path
         d="m 0,0 c 1.954,-2.758 2.474,-6.18 4.204,-9.042 0.597,-1.067 1.197,-1.168 1.802,-0.006 2.607,6.274 5.283,12.522 7.787,18.836 0.972,2.45 2.324,3.703 5.141,3.517 3.401,-0.224 6.828,-0.06 10.244,-0.047 1.879,0.007 2.775,-0.953 2.01,-2.656 -5.562,-12.391 -10.666,-24.987 -16.687,-37.172 -1.041,-2.491 -2.374,-4.841 -3.512,-7.284 -0.438,-0.941 -1.386,-1.91 -0.07,-2.909 l -0.028,-0.004 c 2.343,-0.775 4.751,-0.367 7.133,-0.367 42.128,-0.005 84.255,-0.003 126.383,-0.004 0.605,0 1.216,0.056 1.812,-0.038 0.858,-0.135 1.585,-0.543 1.521,-1.529 -0.056,-0.887 -0.826,-1.031 -1.547,-1.088 -1.105,-0.088 -2.215,-0.048 -3.324,-0.048 -43.337,-0.002 -86.674,0.003 -130.011,-0.016 -1.478,-10e-4 -3.045,0.364 -4.388,-0.649 l 0.029,0.032 c -1.688,-2.405 -2.561,-5.19 -3.666,-7.866 -1.378,-5.299 -2.123,-5.888 -7.335,-5.852 -2.405,0.016 -4.812,-0.045 -7.215,0.031 -1.337,0.042 -3.112,-0.611 -3.81,0.954 -0.594,1.332 0.409,2.632 1.268,3.746 1.412,2.204 2.319,4.646 3.374,7.023 0.971,2.189 -0.003,2.681 -1.948,2.599 -0.904,-0.038 -1.812,-0.003 -2.719,-0.003 -37.062,0 -74.124,-0.001 -111.186,10e-4 -1.107,0 -2.218,-0.05 -3.322,0.054 -0.704,0.067 -1.482,0.182 -1.528,1.105 -0.048,0.948 0.713,1.115 1.428,1.192 1.002,0.108 2.013,0.057 3.02,0.057 35.753,10e-4 71.505,0.014 107.258,-0.02 3.219,-0.003 6.421,0.356 9.637,0.265 0.972,-0.028 1.834,0.043 2.091,1.208 0.034,0.195 0.005,0.438 0.112,0.578 3.273,4.277 1.501,8.257 -0.571,12.325 -1.208,2.371 -2.065,4.92 -3.079,7.389 -1.868,5.721 -4.802,10.981 -7.142,16.498 -1.436,3.386 -2.874,6.773 -4.322,10.155 -0.602,1.404 -0.166,2.034 1.419,2.014 3.92,-0.048 7.842,-0.044 11.763,-0.005 2.335,0.023 3.138,-1.865 3.759,-3.397 C -2.903,6.339 -1.407,3.191 0,0"
         style="fill:#f78e12;fill-opacity:1;fill-rule:nonzero;stroke:none"
         id="path72"
         inkscape:connector-curvature="0" /></g><g
       id="g74"
       transform="matrix(2.7459191,0,0,2.7459191,369.02294,170.84187)"><path
         d="m 0,0 c 0.125,-1.171 -0.563,-1.843 -1.576,-1.675 -2.918,0.483 -5.732,-0.422 -8.62,-0.418 -36.379,0.061 -72.758,0.04 -109.137,0.04 h -4.001 c 1.2,-1.735 2.507,-1.175 3.538,-1.176 37.89,-0.036 75.78,-0.03 113.671,-0.03 5.012,0 5.572,-0.969 2.857,-5.483 -0.947,-1.576 -0.676,-3.898 -2.836,-4.738 0.94,2.312 1.768,4.679 2.855,6.92 0.924,1.904 0.151,2.255 -1.537,2.189 -1.307,-0.052 -2.616,-0.04 -3.925,-0.04 -36.849,-0.001 -73.698,-0.001 -110.547,0.003 -1.006,0 -2.014,0.076 -3.018,0.043 -1.327,-0.043 -2.117,0.387 -2.093,1.869 0.026,1.565 1.022,1.745 2.24,1.725 1.006,-0.016 2.013,0.013 3.02,0.013 38.56,0.01 77.121,0.019 115.682,0.033 C -2.239,-0.724 -0.987,-0.971 0,0"
         style="fill:#f49416;fill-opacity:1;fill-rule:nonzero;stroke:none"
         id="path76"
         inkscape:connector-curvature="0" /></g><g
       id="g78"
       transform="matrix(2.7459191,0,0,2.7459191,409.17953,158.41411)"><path
         d="m 0,0 c 0.75,1.795 2.354,1.248 3.675,1.249 25.596,0.025 51.193,0.018 76.79,0.018 18.341,-10e-4 36.681,-10e-4 55.022,0.001 0.806,0 1.612,0.008 2.416,0.041 0.418,0.017 0.881,0.175 0.819,0.65 -0.043,0.324 -0.373,0.813 -0.646,0.866 -0.877,0.172 -1.788,0.235 -2.685,0.235 C 93.67,3.07 51.95,3.067 10.229,3.074 7.61,3.074 4.911,2.21 2.421,3.739 c 44.846,0.016 89.691,0.033 134.537,0.04 1.348,0 3.053,0.413 3.034,-1.825 -0.017,-2.212 -1.653,-1.799 -3.047,-1.799 C 91.798,0.152 46.651,0.142 1.504,0.126 1.002,0.126 0.501,0.044 0,0"
         style="fill:#f59619;fill-opacity:1;fill-rule:nonzero;stroke:none"
         id="path80"
         inkscape:connector-curvature="0" /></g><g
       id="g82"
       transform="matrix(2.7459191,0,0,2.7459191,385.92215,269.64114)"><path
         d="m 0,0 c -2.043,2.408 -3.008,5.393 -4.177,8.221 -1.534,3.713 -2.286,4.445 -6.317,4.447 -2.817,0.003 -5.634,-0.056 -8.449,0.021 -1.806,0.049 -2.679,-0.526 -1.425,-2.163 1.19,-1.552 0.508,-4.121 3.006,-5.102 0.378,-0.148 -0.042,-2.773 0.76,-4.331 2.283,-4.429 4.248,-9.023 6.31,-13.565 0.459,-1.009 0.729,-2.083 0.6,-3.216 -3.229,5.885 -5.517,12.201 -8.374,18.257 -1.152,2.443 -2.259,4.909 -3.309,7.397 -1.053,2.492 -0.53,3.282 2.158,3.305 3.722,0.033 7.446,0.002 11.169,-0.003 1.357,-0.002 2.617,-0.165 3.262,-1.631 C -3.097,7.796 -1.17,4.054 0,0"
         style="fill:#f19a19;fill-opacity:1;fill-rule:nonzero;stroke:none"
         id="path84"
         inkscape:connector-curvature="0" /></g><g
       id="g86"
       transform="matrix(2.7459191,0,0,2.7459191,415.90485,168.69237)"><path
         d="M 0,0 C -0.964,0.071 -2.069,0.115 -1.176,1.524 0.593,4.316 1.513,7.569 3.582,10.193 3.222,7.488 1.483,5.337 0.598,2.839 0.266,1.9 -0.186,1.03 0,0"
         style="fill:#f59619;fill-opacity:1;fill-rule:nonzero;stroke:none"
         id="path88"
         inkscape:connector-curvature="0" /></g><g
       id="g90"
       transform="matrix(2.7459191,0,0,2.7459191,399.19207,136.90396)"><path
         d="M 0,0 C 0.307,3.047 1.438,5.711 3.667,7.866 2.458,5.238 1.692,2.404 0,0"
         style="fill:#f59619;fill-opacity:1;fill-rule:nonzero;stroke:none"
         id="path92"
         inkscape:connector-curvature="0" /></g><g
       id="g94"
       transform="matrix(2.7459191,0,0,2.7459191,402.41524,244.79523)"><path
         d="M 0,0 C 0.046,-0.723 -0.211,-1.536 -0.885,-1.53 -1.519,-1.525 -1.837,-0.724 -1.802,0.006 -1.203,-0.314 -0.602,-0.406 0,0"
         style="fill:#fce489;fill-opacity:1;fill-rule:nonzero;stroke:none"
         id="path96"
         inkscape:connector-curvature="0" /></g><g
       id="g214"><g
         transform="matrix(2.7459191,0,0,2.7459191,202.01285,277.75149)"
         id="g66"><path
           inkscape:connector-curvature="0"
           id="path68"
           style="fill:#f78e12;fill-opacity:1;fill-rule:nonzero;stroke:none"
           d="m 0,0 c 0.002,10.046 -0.022,20.093 0.015,30.14 0.015,4.257 0.415,4.558 4.736,4.442 2.41,-0.065 4.833,-0.227 7.229,-0.053 3.196,0.232 4,-1.375 3.958,-4.177 -0.086,-5.625 0.078,-11.254 -0.065,-16.877 -0.062,-2.444 0.653,-3.316 3.213,-3.264 6.839,0.138 13.529,-0.905 19.19,-5.027 7.78,-5.664 9.185,-13.824 7.636,-22.612 -1.597,-9.061 -7.624,-14.317 -16.226,-16.701 -8.982,-2.489 -18.214,-1.063 -27.335,-1.349 -2.01,-0.062 -2.205,1.553 -2.257,2.932 -0.127,3.31 -0.09,6.627 -0.094,9.941 C -0.009,-15.07 -0.003,-7.535 0,0" /></g><g
         transform="matrix(2.7459191,0,0,2.7459191,245.79048,243.12874)"
         id="g98"><path
           inkscape:connector-curvature="0"
           id="path100"
           style="fill:#fffffe;fill-opacity:1;fill-rule:nonzero;stroke:none"
           d="M 0,0 C 0,2.213 0.063,4.429 -0.02,6.639 -0.09,8.502 0.746,9.228 2.528,9.011 4.325,8.792 6.152,8.698 7.909,8.3 11.83,7.414 14.079,4.697 14.26,0.893 c 0.199,-4.224 -1.996,-7.758 -5.635,-9.07 -7.204,-2.596 -8.794,-1.481 -8.653,6.064 0.013,0.704 0.002,1.408 0.002,2.113 z" /></g></g><text
       transform="scale(1,-1)"
       style="font-variant:normal;font-weight:normal;font-stretch:normal;font-size:42.89427948px;font-family:'Myriad Pro';-inkscape-font-specification:MyriadPro-Regular;writing-mode:lr-tb;fill:#231f20;fill-opacity:1;fill-rule:nonzero;stroke:none;stroke-width:2.74591899"
       id="text104"
       x="521.25037"
       y="-107.10195"><tspan
         x="521.25037 563.2868 603.77899 640.71094 667.04797 700.33398 740.1828 770.50897"
         y="-107.10195"
         sodipodi:role="line"
         id="tspan102"
         style="stroke-width:2.74591899">Advisors</tspan></text>
</g></svg>